Coordinates
version=1
nRows=5
nColumns=40
inDegrees=yes

Units are S.I. units (second, meters, Newtons, ...)
If the header above contains a line with 'inDegrees', this indicates whether rotational values are in degrees (yes) or radians (no).

endheader
time	pelvis_tilt	pelvis_list	pelvis_rotation	pelvis_tx	pelvis_ty	pelvis_tz	hip_flexion_r	hip_adduction_r	hip_rotation_r	knee_angle_r	knee_angle_r_beta	ankle_angle_r	subtalar_angle_r	mtp_angle_r	hip_flexion_l	hip_adduction_l	hip_rotation_l	knee_angle_l	knee_angle_l_beta	ankle_angle_l	subtalar_angle_l	mtp_angle_l	lumbar_extension	lumbar_bending	lumbar_rotation	arm_flex_r	arm_add_r	arm_rot_r	elbow_flex_r	pro_sup_r	wrist_flex_r	wrist_dev_r	arm_flex_l	arm_add_l	arm_rot_l	elbow_flex_l	pro_sup_l	wrist_flex_l	wrist_dev_l
      2.71000000	     -3.08659895	     -7.83337330	      1.68950797	     -0.32565592	      0.82697011	     -0.98000241	     55.05981639	      1.15890131	     -2.12071716	     15.53326069	      0.27110654	    -17.59854721	      0.00000000	      0.00000000	     46.72810817	     -6.75708125	     -0.06791292	     73.41972092	      1.28141587	     19.44245236	      0.00000000	      0.00000000	    -13.36357195	      2.74842941	      6.77515972	     89.91758204	    -13.87149884	     17.23558515	     32.73108407	     80.07248538	      0.00000000	      0.00000000	     89.93147999	    -26.96198705	     22.78091768	     39.82049521	     83.85642390	      0.00000000	      0.00000000
      2.71500000	     -3.34254475	     -8.14249854	      1.99022497	     -0.32629104	      0.82558554	     -0.98001585	     55.42018955	      1.08659927	     -2.69493968	     15.58320929	      0.27197831	    -17.69876873	      0.00000000	      0.00000000	     47.35919869	     -6.78985960	      0.40378686	     73.74123059	      1.28702727	     19.43352784	      0.00000000	      0.00000000	    -13.15718909	      3.08284737	      6.58719069	     89.91904154	    -13.87039017	     17.04875473	     32.80369333	     80.18786730	      0.00000000	      0.00000000	     89.93222231	    -26.79171795	     22.52669633	     39.81423533	     83.81311464	      0.00000000	      0.00000000
      2.72000000	     -3.35716447	     -8.13792512	      1.98730132	     -0.32652345	      0.82471608	     -0.97997480	     55.49398116	      1.08178528	     -2.62123699	     15.57424675	      0.27182188	    -17.67933716	      0.00000000	      0.00000000	     47.43004354	     -6.81506688	      0.32728667	     73.87469915	      1.28935673	     19.71052544	      0.00000000	      0.00000000	    -13.21718669	      3.07097682	      6.46119556	     89.91875133	    -13.77620485	     17.00665892	     32.79405636	     79.36390585	      0.00000000	      0.00000000	     89.93240261	    -27.00497041	     22.61196392	     39.98974311	     83.97827987	      0.00000000	      0.00000000
      2.72500000	     -3.44411036	     -8.22077233	      2.01847305	     -0.32662459	      0.82385821	     -0.97995592	     55.58645648	      1.12128875	     -2.76592308	     15.45575872	      0.26975388	    -17.61846994	      0.00000000	      0.00000000	     47.82873586	     -6.87517509	      0.43763196	     74.26496590	      1.29616817	     19.29470109	      0.00000000	      0.00000000	    -13.19130928	      3.13236637	      6.45922712	     89.91941055	    -13.73692553	     16.83336848	     32.78488885	     80.15007304	      0.00000000	      0.00000000	     89.93286015	    -27.10453079	     22.83718111	     40.14306636	     83.86211644	      0.00000000	      0.00000000
      2.73000000	     -3.47721477	     -8.26022170	      2.08417875	     -0.32697229	      0.82307794	     -0.98005165	     55.65380648	      1.08001498	     -2.85885600	     15.40506162	      0.26886905	    -17.71693526	      0.00000000	      0.00000000	     47.92412466	     -6.86655542	      0.45481954	     74.35696905	      1.29777393	     19.55159410	      0.00000000	      0.00000000	    -13.23837011	      3.17640985	      6.33395045	     89.91889356	    -13.70410770	     17.00818505	     32.84324919	     77.47643169	      0.00000000	      0.00000000	     89.93301590	    -27.03801778	     22.77421431	     40.17793502	     81.60107202	      0.00000000	      0.00000000
